# xmcd
#
# Track frame offsets: 
#        150
#        15616
#        36296
#        55216
#        72700
#        91783
#        111031
#        129464
#        146919
#        164382
#        181766
#
# Disc length: 2643 seconds
#
# Revision: 3
# Processed by: cddbd v1.5.2PL0 Copyright (c) Steve Scherf et al.
# Submitted via: ExactAudioCopyFreeDBPlugin 1.0
#
DISCID=970a510b
DTITLE=Johanna Kurkela - Hyvästi, Dolores Haze
DYEAR=2010
DGENRE=Pop-Folk
TTITLE0=Tuo Se Mulle
TTITLE1=Kielletyt Kielot
TTITLE2=Rakkauslaulu
TTITLE3=Ainutlaatuinen
TTITLE4=Ilta Saapuikin Niin Äkkiä
TTITLE5=Kosketusta Vailla Vapiseva Mies
TTITLE6=Piha Ilman Sua
TTITLE7=Maan Päällä Niin Kuin Taivaassa
TTITLE8=Satojen Merien Näkijä
TTITLE9=Jos Sä Tarvitset Mua
TTITLE10=Hyvästi, Dolores Haze
EXTD=
EXTT0=
EXTT1=
EXTT2=
EXTT3=
EXTT4=
EXTT5=
EXTT6=
EXTT7=
EXTT8=
EXTT9=
EXTT10=
PLAYORDER=
